<?xml version="1.0" encoding="UTF-8" standalone="no"?>
<svg
   xmlns:dc="http://purl.org/dc/elements/1.1/"
   xmlns:cc="http://creativecommons.org/ns#"
   xmlns:rdf="http://www.w3.org/1999/02/22-rdf-syntax-ns#"
   xmlns:svg="http://www.w3.org/2000/svg"
   xmlns="http://www.w3.org/2000/svg"
   xmlns:sodipodi="http://sodipodi.sourceforge.net/DTD/sodipodi-0.dtd"
   xmlns:inkscape="http://www.inkscape.org/namespaces/inkscape"
   width="200"
   height="200"
   viewBox="0 0 200 200"
   version="1.1"
   id="svg18"
   sodipodi:docname="blue.svg"
   inkscape:version="0.92.2 (5c3e80d, 2017-08-06)">
  <metadata
     id="metadata22">
    <rdf:RDF>
      <cc:Work
         rdf:about="">
        <dc:format>image/svg+xml</dc:format>
        <dc:type
           rdf:resource="http://purl.org/dc/dcmitype/StillImage" />
      </cc:Work>
    </rdf:RDF>
  </metadata>
  <sodipodi:namedview
     pagecolor="#ffffff"
     bordercolor="#666666"
     borderopacity="1"
     objecttolerance="10"
     gridtolerance="10"
     guidetolerance="10"
     inkscape:pageopacity="0"
     inkscape:pageshadow="2"
     inkscape:window-width="1366"
     inkscape:window-height="705"
     id="namedview20"
     showgrid="false"
     inkscape:zoom="2"
     inkscape:cx="59.735269"
     inkscape:cy="111.38566"
     inkscape:window-x="-8"
     inkscape:window-y="-8"
     inkscape:window-maximized="1"
     inkscape:current-layer="blue_back" />
  <defs
     id="defs5">
    <clipPath
       id="clip-LogoWhite">
      <rect
         width="200"
         height="200"
         id="rect2" />
    </clipPath>
  </defs>
  <g
     id="LogoWhite"
     clip-path="url(#clip-LogoWhite)">
    <rect
       width="200"
       height="200"
       id="rect7"
       x="0"
       y="0"
       style="fill:#ffffff" />
    <g
       id="blue_back"
       data-name="blue back"
       transform="translate(-229,-78.398)">
      <path
         id="rect138-1-0"
         d="M 229.5,78.24 H 429.158 V 277.898 H 229.5 Z"
         inkscape:connector-curvature="0"
         style="fill:#665eff;fill-opacity:1;stroke:#665eff;stroke-opacity:1" />
      <path
         style="fill:#ffffff"
         d="m 101.95312,47.193359 a 35.218,35.218 0 0 0 -0.39453,0.0059 v 20.003906 a 15.112,15.112 0 0 1 14.12305,13.455078 c 0.032,0.31591 0.0403,0.640564 0.0547,0.962891 2.51404,0.377174 11.45647,1.960358 19.62305,6.585937 a 35.4,35.4 0 0 0 0.53124,-5.908203 h 0.002 A 35.218,35.218 0 0 0 101.95312,47.193359 Z m -2.511714,0.03516 A 35.218,35.218 0 0 0 65.457031,82.138672 c -0.127,5.277 0,2.540422 0,7.607422 a 79.451,79.451 0 0 1 17.205078,-7 c 0.83,-0.214667 1.66586,-0.416089 2.50586,-0.607422 h 0.251953 l 0.06445,-0.0059 a 15.124,15.124 0 0 1 9.472656,-13.820312 13.722,13.722 0 0 1 1.34375,-0.472656 0.163,0.163 0 0 1 0.03516,-0.01172 14.74,14.74 0 0 1 3.105468,-0.589844 z"
         transform="translate(229,78.398)"
         id="path45-8-9"
         inkscape:connector-curvature="0" />
      <path
         style="fill:#ffffff"
         d="m 115.53516,83.738281 c -0.68401,7.682025 -7.14912,13.553217 -14.86133,13.496094 l -0.49281,2.14e-4 c -5.124208,0.01218 -9.830177,0.878312 -14.766908,2.251746 -0.251999,0.075 -0.507765,0.151422 -0.759765,0.232422 -0.252,0.081 -0.506672,0.160094 -0.763672,0.246094 -0.766,0.246669 -1.540312,0.514119 -2.320313,0.800779 -0.507998,0.18702 -1.017578,0.37813 -1.517578,0.57813 -0.01,0.009 -0.02016,0.01 -0.03516,0.0156 -0.262,0.10098 -0.51839,0.2104 -0.77539,0.3164 -0.257002,0.106 -0.518391,0.21713 -0.775391,0.32813 -1.001,0.427 -1.99775,0.88418 -2.96875,1.36718 -0.493,0.252 -0.984891,0.50363 -1.462891,0.76563 -0.231,0.125 -0.457593,0.25095 -0.683594,0.37695 l -0.164069,0.10151 c -2.447271,1.39241 -4.718751,2.9484 -6.945312,4.67188 -0.317002,0.247 -0.632219,0.50275 -0.949219,0.75977 v 30.00976 c 2.859348,-6.98333 7.488007,-11.83332 12.107422,-15.0957 7.46169,-5.26969 14.945312,-6.54102 14.945312,-6.54102 l 0.002,0.0117 c 1.520346,-0.31011 4.093701,-0.63311 9.271488,-1.00781 10.84745,-1.74599 20.42365,-5.9207 26.27325,-12.83599 0.88145,-1.04306 1.71445,-2.19481 2.39239,-3.23632 0.176,-0.277 0.35353,-0.55784 0.51953,-0.83984 1.86578,-3.158477 3.23031,-6.587266 4.04492,-10.164067 -7.74176,-4.548909 -16.66197,-6.192597 -19.31445,-6.609375 z"
         transform="translate(229,78.398)"
         id="path49-8-2"
         inkscape:connector-curvature="0"
         sodipodi:nodetypes="ccccscccccccccccccsccccccccc" />
      <path
         style="fill:#ffffff"
         d="m 85.421875,122.88672 c -2.095223,0.918 -4.434439,2.13488 -6.798828,3.80469 -5.549807,3.91945 -11.060947,10.11095 -13.162109,19.98242 v 5.89844 a 10.081,10.081 0 0 0 9.980468,10.14843 9.917,9.917 0 0 0 9,-5.63476 c 0.07,-0.141 0.137172,-0.2915 0.201172,-0.4375 0.064,-0.146 0.119688,-0.30099 0.179688,-0.45899 0.06,-0.158 0.10625,-0.29903 0.15625,-0.45703 -0.006,-0.006 -0.006,-0.006 0,-0.006 0.045,-0.156 0.09086,-0.31751 0.130859,-0.47851 0.04,-0.161 0.07533,-0.32143 0.111328,-0.48243 a 10.34,10.34 0 0 0 0.201172,-2.02929 1.622,1.622 0 0 0 -0.0078,-0.16602 h 0.0078 z"
         transform="translate(229,78.398)"
         id="path53-1-5"
         inkscape:connector-curvature="0" />
    </g>
  </g>
</svg>
